<svg width="90" height="50" viewBox="0 0 90 50" fill="none" xmlns="http://www.w3.org/2000/svg">
<path d="M2.86932 0.90909H9.31818L17.9545 21.9886H18.2955L26.9318 0.90909H33.3807V30H28.3239V10.0142H28.054L20.0142 29.9148H16.2358L8.19602 9.97159H7.92614V30H2.86932V0.90909ZM39.1193 30V0.90909H44.3892V14.2756H44.7443L56.0938 0.90909H62.5284L51.2784 13.9631L62.6278 30H56.2926L47.6136 17.5284L44.3892 21.3352V30H39.1193ZM81.843 8.90625C81.7105 7.66572 81.1518 6.69981 80.1669 6.00852C79.1915 5.31723 77.9226 4.97159 76.3601 4.97159C75.2616 4.97159 74.3194 5.13731 73.5334 5.46875C72.7474 5.80019 72.1461 6.25 71.7294 6.81818C71.3127 7.38636 71.0997 8.03504 71.0902 8.7642C71.0902 9.37027 71.2275 9.89583 71.5021 10.3409C71.7862 10.786 72.1697 11.1648 72.6527 11.4773C73.1357 11.7803 73.6707 12.036 74.2578 12.2443C74.8449 12.4527 75.4368 12.6278 76.0334 12.7699L78.7607 13.4517C79.8591 13.7074 80.915 14.053 81.9283 14.4886C82.951 14.9242 83.8648 15.4735 84.6697 16.1364C85.4841 16.7992 86.1281 17.5994 86.6016 18.5369C87.075 19.4744 87.3118 20.5729 87.3118 21.8324C87.3118 23.5369 86.8762 25.0379 86.005 26.3352C85.1338 27.6231 83.8743 28.6316 82.2266 29.3608C80.5883 30.0805 78.6044 30.4403 76.2749 30.4403C74.0116 30.4403 72.0466 30.09 70.38 29.3892C68.7228 28.6884 67.4254 27.6657 66.4879 26.321C65.5599 24.9763 65.058 23.3381 64.9822 21.4062H70.1669C70.2427 22.4195 70.5552 23.2623 71.1044 23.9347C71.6536 24.607 72.3686 25.1089 73.2493 25.4403C74.1394 25.7718 75.1338 25.9375 76.2322 25.9375C77.3781 25.9375 78.3819 25.767 79.2436 25.4261C80.1148 25.0758 80.7966 24.5928 81.2891 23.9773C81.7815 23.3523 82.0324 22.6231 82.0419 21.7898C82.0324 21.0322 81.8099 20.4072 81.3743 19.9148C80.9387 19.4129 80.3279 18.9962 79.5419 18.6648C78.7654 18.3239 77.8563 18.0208 76.8146 17.7557L73.505 16.9034C71.1091 16.2879 69.2152 15.3551 67.8232 14.1051C66.4406 12.8456 65.7493 11.1742 65.7493 9.09091C65.7493 7.37689 66.2133 5.87595 67.1413 4.58807C68.0788 3.30019 69.3525 2.30114 70.9624 1.59091C72.5722 0.871211 74.3951 0.511363 76.4311 0.511363C78.4955 0.511363 80.3042 0.871211 81.8572 1.59091C83.4197 2.30114 84.6461 3.29072 85.5362 4.55966C86.4264 5.81913 86.8857 7.26799 86.9141 8.90625H81.843Z" fill="white"/>
<path d="M9.33949 37.4531C9.2732 36.8329 8.99384 36.3499 8.50142 36.0043C8.01373 35.6586 7.37926 35.4858 6.59801 35.4858C6.04877 35.4858 5.57765 35.5687 5.18466 35.7344C4.79167 35.9001 4.491 36.125 4.28267 36.4091C4.07434 36.6932 3.9678 37.0175 3.96307 37.3821C3.96307 37.6851 4.03172 37.9479 4.16903 38.1705C4.31108 38.393 4.50284 38.5824 4.74432 38.7386C4.9858 38.8902 5.25331 39.018 5.54688 39.1222C5.84044 39.2263 6.13636 39.3139 6.43466 39.3849L7.7983 39.7259C8.34754 39.8537 8.87547 40.0265 9.3821 40.2443C9.89347 40.4621 10.3504 40.7367 10.7528 41.0682C11.16 41.3996 11.482 41.7997 11.7188 42.2685C11.9555 42.7372 12.0739 43.2865 12.0739 43.9162C12.0739 44.7685 11.8561 45.5189 11.4205 46.1676C10.9848 46.8116 10.3551 47.3158 9.53125 47.6804C8.71212 48.0402 7.72017 48.2202 6.5554 48.2202C5.42377 48.2202 4.44129 48.045 3.60795 47.6946C2.77936 47.3442 2.13068 46.8329 1.66193 46.1605C1.19792 45.4882 0.94697 44.669 0.909091 43.7031H3.50142C3.5393 44.2098 3.69555 44.6312 3.97017 44.9673C4.24479 45.3035 4.60227 45.5545 5.04261 45.7202C5.48769 45.8859 5.98485 45.9688 6.53409 45.9688C7.10701 45.9688 7.6089 45.8835 8.03977 45.7131C8.47538 45.5379 8.81629 45.2964 9.0625 44.9886C9.30871 44.6761 9.43419 44.3116 9.43892 43.8949C9.43419 43.5161 9.32292 43.2036 9.10511 42.9574C8.88731 42.7064 8.58191 42.4981 8.18892 42.3324C7.80066 42.1619 7.34612 42.0104 6.82528 41.8778L5.17045 41.4517C3.97254 41.1439 3.02557 40.6776 2.32955 40.0526C1.63826 39.4228 1.29261 38.5871 1.29261 37.5455C1.29261 36.6884 1.52462 35.938 1.98864 35.294C2.45739 34.6501 3.09422 34.1506 3.89915 33.7955C4.70407 33.4356 5.61553 33.2557 6.63352 33.2557C7.66572 33.2557 8.57008 33.4356 9.34659 33.7955C10.1278 34.1506 10.741 34.6454 11.1861 35.2798C11.6312 35.9096 11.8608 36.634 11.875 37.4531H9.33949ZM14.3093 48V37.0909H16.8803V48H14.3093ZM15.6019 35.5426C15.1947 35.5426 14.8443 35.4077 14.5508 35.1378C14.2572 34.8632 14.1104 34.5341 14.1104 34.1506C14.1104 33.7623 14.2572 33.4332 14.5508 33.1634C14.8443 32.8887 15.1947 32.7514 15.6019 32.7514C16.0138 32.7514 16.3642 32.8887 16.6531 33.1634C16.9466 33.4332 17.0934 33.7623 17.0934 34.1506C17.0934 34.5341 16.9466 34.8632 16.6531 35.1378C16.3642 35.4077 16.0138 35.5426 15.6019 35.5426ZM28.1463 39.9744L25.8026 40.2301C25.7363 39.9934 25.6203 39.7708 25.4545 39.5625C25.2936 39.3542 25.0758 39.1861 24.8011 39.0582C24.5265 38.9304 24.1903 38.8665 23.7926 38.8665C23.2576 38.8665 22.8078 38.9825 22.4432 39.2145C22.0833 39.4465 21.9058 39.7472 21.9105 40.1165C21.9058 40.4337 22.0218 40.6918 22.2585 40.8906C22.5 41.0895 22.8977 41.2528 23.4517 41.3807L25.3125 41.7784C26.3447 42.0009 27.1117 42.3537 27.6136 42.8366C28.1203 43.3196 28.3759 43.9517 28.3807 44.733C28.3759 45.4195 28.1747 46.0256 27.777 46.5511C27.384 47.072 26.8371 47.4792 26.1364 47.7727C25.4356 48.0663 24.6307 48.2131 23.7216 48.2131C22.3864 48.2131 21.3116 47.9337 20.4972 47.375C19.6828 46.8116 19.1974 46.0279 19.0412 45.0241L21.5483 44.7827C21.6619 45.2751 21.9034 45.6468 22.2727 45.8977C22.642 46.1487 23.1226 46.2741 23.7145 46.2741C24.3253 46.2741 24.8153 46.1487 25.1847 45.8977C25.5587 45.6468 25.7457 45.3366 25.7457 44.9673C25.7457 44.6548 25.625 44.3968 25.3835 44.1932C25.1468 43.9896 24.7775 43.8333 24.2756 43.7244L22.4148 43.3338C21.3684 43.116 20.5942 42.7491 20.0923 42.233C19.5904 41.7121 19.3419 41.054 19.3466 40.2585C19.3419 39.5862 19.5241 39.0038 19.8935 38.5114C20.2675 38.0142 20.786 37.6307 21.4489 37.3608C22.1165 37.0862 22.8859 36.9489 23.7571 36.9489C25.0355 36.9489 26.0417 37.2211 26.7756 37.7656C27.5142 38.3101 27.9711 39.0464 28.1463 39.9744ZM35.9482 37.0909V39.0795H29.6768V37.0909H35.9482ZM31.2251 34.4773H33.7962V44.7188C33.7962 45.0644 33.8482 45.3295 33.9524 45.5142C34.0613 45.6941 34.2034 45.8172 34.3786 45.8835C34.5537 45.9498 34.7479 45.983 34.9609 45.983C35.1219 45.983 35.2687 45.9711 35.4013 45.9474C35.5386 45.9238 35.6428 45.9025 35.7138 45.8835L36.147 47.8935C36.0097 47.9408 35.8132 47.9929 35.5575 48.0497C35.3066 48.1065 34.9988 48.1397 34.6342 48.1491C33.9903 48.1681 33.4103 48.071 32.8942 47.858C32.3781 47.6402 31.9685 47.304 31.6655 46.8494C31.3672 46.3949 31.2204 45.8267 31.2251 45.1449V34.4773ZM42.8107 48.2131C41.717 48.2131 40.7724 47.9858 39.9769 47.5312C39.1862 47.072 38.5778 46.4233 38.1516 45.5852C37.7255 44.7424 37.5124 43.7505 37.5124 42.6094C37.5124 41.4872 37.7255 40.5024 38.1516 39.6548C38.5825 38.8026 39.1838 38.1397 39.9556 37.6662C40.7274 37.188 41.6341 36.9489 42.6758 36.9489C43.3481 36.9489 43.9826 37.0578 44.5792 37.2756C45.1805 37.4886 45.7108 37.8201 46.1701 38.2699C46.6341 38.7197 46.9987 39.2926 47.2638 39.9886C47.529 40.6799 47.6616 41.5038 47.6616 42.4602V43.2486H38.7198V41.5156H45.1971C45.1924 41.0232 45.0858 40.5852 44.8775 40.2017C44.6692 39.8134 44.378 39.508 44.0039 39.2855C43.6346 39.063 43.2037 38.9517 42.7113 38.9517C42.1857 38.9517 41.7241 39.0795 41.3263 39.3352C40.9286 39.5862 40.6185 39.9176 40.396 40.3295C40.1781 40.7367 40.0669 41.1842 40.0621 41.6719V43.1847C40.0621 43.8191 40.1781 44.3636 40.4102 44.8182C40.6422 45.268 40.9665 45.6136 41.3832 45.8551C41.7998 46.0919 42.2875 46.2102 42.8462 46.2102C43.2203 46.2102 43.5588 46.1581 43.8619 46.054C44.1649 45.9451 44.4277 45.7865 44.6502 45.5781C44.8728 45.3698 45.0408 45.1117 45.1545 44.804L47.555 45.0739C47.4035 45.7083 47.1147 46.2623 46.6886 46.7358C46.2672 47.2045 45.7274 47.5691 45.0692 47.8295C44.4111 48.0852 43.6583 48.2131 42.8107 48.2131ZM49.8366 48V37.0909H52.294V38.9446H52.4219C52.6491 38.3196 53.0256 37.8319 53.5511 37.4815C54.0767 37.1264 54.7041 36.9489 55.4332 36.9489C56.1719 36.9489 56.7945 37.1288 57.3011 37.4886C57.8125 37.8437 58.1723 38.3291 58.3807 38.9446H58.4943C58.7358 38.3385 59.143 37.8556 59.7159 37.4957C60.2936 37.1312 60.9777 36.9489 61.7685 36.9489C62.7723 36.9489 63.5914 37.2661 64.2259 37.9006C64.8603 38.535 65.1776 39.4607 65.1776 40.6776V48H62.5994V41.0753C62.5994 40.3982 62.4195 39.9034 62.0597 39.5909C61.6998 39.2737 61.2595 39.1151 60.7386 39.1151C60.1184 39.1151 59.633 39.3092 59.2827 39.6974C58.937 40.081 58.7642 40.5805 58.7642 41.196V48H56.2429V40.9688C56.2429 40.4053 56.0724 39.9555 55.7315 39.6193C55.3954 39.2831 54.955 39.1151 54.4105 39.1151C54.0412 39.1151 53.705 39.2098 53.402 39.3991C53.099 39.5838 52.8575 39.8466 52.6776 40.1875C52.4976 40.5237 52.4077 40.9167 52.4077 41.3665V48H49.8366ZM70.9251 48.2202C70.2338 48.2202 69.6112 48.0971 69.0572 47.8509C68.5079 47.5999 68.0723 47.2306 67.7504 46.7429C67.4331 46.2552 67.2745 45.6539 67.2745 44.9389C67.2745 44.3234 67.3881 43.8144 67.6154 43.4119C67.8427 43.0095 68.1528 42.6875 68.5458 42.446C68.9388 42.2045 69.3815 42.0223 69.8739 41.8991C70.3711 41.7713 70.8848 41.679 71.4151 41.6222C72.0543 41.5559 72.5728 41.4967 72.9705 41.4446C73.3683 41.3878 73.6571 41.3026 73.837 41.1889C74.0217 41.0705 74.114 40.8883 74.114 40.642V40.5994C74.114 40.0644 73.9554 39.6501 73.6381 39.3565C73.3209 39.063 72.864 38.9162 72.2674 38.9162C71.6377 38.9162 71.1381 39.0535 70.7688 39.3281C70.4042 39.6027 70.158 39.9271 70.0302 40.3011L67.6296 39.9602C67.819 39.2973 68.1315 38.7434 68.5671 38.2983C69.0027 37.8485 69.5354 37.5123 70.1651 37.2898C70.7949 37.0625 71.4909 36.9489 72.2532 36.9489C72.7788 36.9489 73.302 37.0104 73.8228 37.1335C74.3436 37.2566 74.8195 37.4602 75.2504 37.7443C75.6812 38.0237 76.0269 38.4048 76.2873 38.8878C76.5524 39.3707 76.685 39.9744 76.685 40.6989V48H74.2134V46.5014H74.1282C73.9719 46.8045 73.7518 47.0885 73.4677 47.3537C73.1883 47.6141 72.8356 47.8248 72.4094 47.9858C71.988 48.142 71.4933 48.2202 70.9251 48.2202ZM71.5927 46.331C72.1088 46.331 72.5562 46.2292 72.935 46.0256C73.3138 45.8172 73.605 45.5426 73.8086 45.2017C74.0169 44.8608 74.1211 44.4891 74.1211 44.0866V42.8011C74.0406 42.8674 73.9033 42.929 73.7092 42.9858C73.5198 43.0426 73.3067 43.0923 73.07 43.1349C72.8332 43.1776 72.5988 43.2154 72.3668 43.2486C72.1348 43.2817 71.9336 43.3101 71.7631 43.3338C71.3796 43.3859 71.0363 43.4711 70.7333 43.5895C70.4303 43.7079 70.1912 43.8736 70.016 44.0866C69.8408 44.295 69.7532 44.5649 69.7532 44.8963C69.7532 45.3698 69.926 45.7273 70.2717 45.9688C70.6173 46.2102 71.0576 46.331 71.5927 46.331ZM87.8924 39.9744L85.5487 40.2301C85.4824 39.9934 85.3664 39.7708 85.2006 39.5625C85.0397 39.3542 84.8219 39.1861 84.5472 39.0582C84.2726 38.9304 83.9364 38.8665 83.5387 38.8665C83.0037 38.8665 82.5539 38.9825 82.1893 39.2145C81.8294 39.4465 81.6519 39.7472 81.6566 40.1165C81.6519 40.4337 81.7679 40.6918 82.0046 40.8906C82.2461 41.0895 82.6438 41.2528 83.1978 41.3807L85.0586 41.7784C86.0908 42.0009 86.8578 42.3537 87.3597 42.8366C87.8664 43.3196 88.122 43.9517 88.1268 44.733C88.122 45.4195 87.9208 46.0256 87.5231 46.5511C87.1301 47.072 86.5832 47.4792 85.8825 47.7727C85.1817 48.0663 84.3768 48.2131 83.4677 48.2131C82.1325 48.2131 81.0576 47.9337 80.2433 47.375C79.4289 46.8116 78.9435 46.0279 78.7873 45.0241L81.2944 44.7827C81.408 45.2751 81.6495 45.6468 82.0188 45.8977C82.3881 46.1487 82.8687 46.2741 83.4606 46.2741C84.0714 46.2741 84.5614 46.1487 84.9308 45.8977C85.3048 45.6468 85.4918 45.3366 85.4918 44.9673C85.4918 44.6548 85.3711 44.3968 85.1296 44.1932C84.8929 43.9896 84.5236 43.8333 84.0217 43.7244L82.1609 43.3338C81.1145 43.116 80.3403 42.7491 79.8384 42.233C79.3365 41.7121 79.0879 41.054 79.0927 40.2585C79.0879 39.5862 79.2702 39.0038 79.6396 38.5114C80.0136 38.0142 80.5321 37.6307 81.195 37.3608C81.8626 37.0862 82.632 36.9489 83.5032 36.9489C84.7816 36.9489 85.7878 37.2211 86.5217 37.7656C87.2603 38.3101 87.7172 39.0464 87.8924 39.9744Z" fill="white"/>
</svg>
